# xmcd
#
# Track frame offsets: 
#        150
#        24912
#        58020
#        85487
#        104987
#        132250
#        155352
#        178225
#        199527
#
# Disc length: 3223 seconds
#
# Revision: 2
# Processed by: cddbd v1.5.2PL0 Copyright (c) Steve Scherf et al.
# Submitted via: ExactAudioCopy v0.95b4
#
DISCID=7a0c9509
DTITLE=Jean-Philippe Viret - Etant Donnes
DYEAR=2002
DGENRE=Jazz
TTITLE0=La Fee Blesse
TTITLE1=Derives
TTITLE2=Par Tous Les Temps
TTITLE3=Pilou
TTITLE4=Trois Jours De Treve
TTITLE5=Le Labyrinthe
TTITLE6=Le Bal Des Orques
TTITLE7=Un Instant Chez Viret
TTITLE8=Pour El Ho
EXTD=YEAR: 2002
EXTT0=
EXTT1=
EXTT2=
EXTT3=
EXTT4=
EXTT5=
EXTT6=
EXTT7=
EXTT8=
PLAYORDER=
